#!OML:ASF F:\VICON\USERDATA\INSTALL\rory3\rory3.ASF
:FULLY-SPECIFIED
:DEGREES
156
root -2.95447 18.7826 9.74998 -2.7316 146.717 -5.81253
lowerback 13.9224 0.956565 1.02482
upperback 3.2233 1.67805 0.0470079
thorax -4.37414 0.930073 -0.829608
lowerneck -7.83546 0.146675 -7.69452
upperneck 28.3705 2.89226 2.43706
head 10.2104 1.46765 2.62593
rclavicle -2.32578e-014 -7.15625e-015
rhumerus -26.408 -5.82916 -73.3297
rradius 30.0495
rwrist 14.3159
rhand -30.9182 -2.73422
rfingers 7.12502
rthumb -4.20411 -32.6725
lclavicle -2.32578e-014 -7.15625e-015
lhumerus -45.69 37.55 53.7047
lradius 15.7087
lwrist -17.5709
lhand -20.0688 21.9248
lfingers 7.12502
lthumb 6.27339 51.8119
rfemur -11.9288 17.6963 16.6482
rtibia 26.9997
rfoot -17.7503 -15.0793
rtoes 7.40118
lfemur -60.8292 20.057 -25.9423
ltibia 93.7694
lfoot -18.2315 -6.75314
ltoes -10.0668
157
root -2.92807 18.7849 9.7606 -2.61842 147.007 -5.82878
lowerback 14.0133 0.97879 0.882123
upperback 3.19174 1.68773 0.0455064
thorax -4.46059 0.93523 -0.755262
lowerneck -8.05188 0.139787 -7.70445
upperneck 28.5623 2.93918 2.39793
head 10.3227 1.48363 2.6295
rclavicle 6.81831e-014 -2.46493e-014
rhumerus -26.3506 -5.44833 -73.5483
rradius 29.9915
rwrist 14.473
rhand -31.0377 -3.0679
rfingers 7.12502
rthumb -4.31957 -33.0038
lclavicle 6.81831e-014 -2.46493e-014
lhumerus -45.6182 37.116 54.2964
lradius 15.9659
lwrist -17.2133
lhand -19.8546 22.1283
lfingers 7.12502
lthumb 6.48019 52.0091
rfemur -11.9401 17.6034 16.702
rtibia 26.9019
rfoot -17.8131 -15.4063
rtoes 6.97007
lfemur -61.3847 20.1803 -26.1254
ltibia 93.4123
lfoot -18.2118 -6.65223
ltoes -10.2282
158
root -2.90159 18.7893 9.76411 -2.45676 147.268 -5.71805
lowerback 14.0259 1.00249 0.904919
upperback 3.13518 1.71962 0.0572705
thorax -4.5261 0.948384 -0.762577
lowerneck -8.05549 0.133802 -7.82878
upperneck 28.6964 2.95965 2.49574
head 10.3693 1.49653 2.69358
rclavicle 1.21259e-014 3.4191e-014
rhumerus -26.3978 -5.09811 -73.7377
rradius 29.861
rwrist 14.7455
rhand -30.8418 -3.87435
rfingers 7.12502
rthumb -4.13037 -33.8141
lclavicle 1.21259e-014 3.4191e-014
lhumerus -45.661 36.5805 54.8464
lradius 16.2153
lwrist -16.922
lhand -19.8709 22.1312
lfingers 7.12502
lthumb 6.46449 52.0125
rfemur -11.8962 17.579 16.8783
rtibia 26.7697
rfoot -17.8491 -15.7477
rtoes 6.61745
lfemur -61.8483 20.2972 -26.1705
ltibia 93.0227
lfoot -18.1918 -6.59728
ltoes -9.53524
159
root -2.87483 18.7956 9.75999 -2.36345 147.513 -5.66293
lowerback 13.9436 1.01828 0.942433
upperback 3.12476 1.74189 0.0274585
thorax -4.48979 0.958437 -0.816811
lowerneck -7.95773 0.129685 -7.90772
upperneck 28.7223 2.97364 2.52328
head 10.3583 1.50416 2.71847
rclavicle -3.45885e-014 0
rhumerus -26.4505 -4.90519 -73.9445
rradius 29.6791
rwrist 15.0506
rhand -30.2182 -5
rfingers 7.12502
rthumb -3.52814 -34.9505
lclavicle -3.45885e-014 0
lhumerus -45.794 36.3767 55.0681
lradius 16.3506
lwrist -16.9607
lhand -19.9957 21.663
lfingers 7.12502
lthumb 6.34395 51.548
rfemur -11.7672 17.423 16.9899
rtibia 26.6298
rfoot -17.9547 -15.8796
rtoes 6.69512
lfemur -62.1733 20.4544 -26.2666
ltibia 92.6082
lfoot -18.1951 -6.55435
ltoes -8.30148
160
root -2.84609 18.799 9.75937 -2.3062 147.771 -5.60448
lowerback 13.9297 1.03942 0.968431
upperback 3.16783 1.77518 -0.0136071
thorax -4.43418 0.976847 -0.879234
lowerneck -7.98253 0.139547 -7.8628
upperneck 28.6508 3.00307 2.42306
head 10.3381 1.51142 2.67613
rclavicle 3.43897e-014 -9.54166e-015
rhumerus -26.3663 -4.79976 -74.186
rradius 29.4767
rwrist 15.298
rhand -30.1284 -4.91043
rfingers 7.12502
rthumb -3.44147 -34.8624
lclavicle 3.43897e-014 -9.54166e-015
lhumerus -45.742 36.2606 55.337
lradius 16.4873
lwrist -16.8465
lhand -20.0149 21.3646
lfingers 7.12502
lthumb 6.32539 51.2502
rfemur -11.589 17.2266 17.1333
rtibia 26.4829
rfoot -18.0849 -16.0239
rtoes 6.59589
lfemur -62.4651 20.6459 -26.3512
ltibia 92.1773
lfoot -18.3027 -6.40836
ltoes -9.15524
161
root -2.81781 18.7984 9.76113 -2.24689 148.049 -5.58539
lowerback 13.988 1.06835 0.937882
upperback 3.17397 1.80907 -0.069842
thorax -4.45782 0.994493 -0.928378
lowerneck -7.99786 0.159094 -7.76123
upperneck 28.5464 3.03364 2.30663
head 10.3043 1.52294 2.6171
rclavicle -4.13472e-014 -7.95139e-015
rhumerus -26.2617 -4.79365 -74.4215
rradius 29.2803
rwrist 15.3861
rhand -30.1684 -3.77757
rfingers 7.12502
rthumb -3.48008 -33.7289
lclavicle -4.13472e-014 -7.95139e-015
lhumerus -45.5353 35.8447 55.8231
lradius 16.6537
lwrist -16.2604
lhand -19.9398 21.2162
lfingers 7.12502
lthumb 6.39794 51.0995
rfemur -11.464 17.0894 17.2406
rtibia 26.3492
rfoot -18.1917 -16.2158
rtoes 6.45683
lfemur -62.7728 20.7687 -26.469
ltibia 91.7125
lfoot -18.3971 -6.27669
ltoes -10.6355
162
root -2.79181 18.7976 9.76397 -2.12855 148.325 -5.43587
lowerback 14.104 1.08258 1.0193
upperback 3.12858 1.83888 -0.0947692
thorax -4.5649 1.00666 -1.0098
lowerneck -7.98052 0.173522 -7.62869
upperneck 28.5279 3.08462 2.13196
head 10.2974 1.54423 2.53723
rclavicle 1.98785e-016 1.74931e-014
rhumerus -26.3041 -4.66212 -74.6838
rradius 29.1619
rwrist 15.4551
rhand -29.5096 -4.65364
rfingers 7.12502
rthumb -2.8439 -34.6144
lclavicle 1.98785e-016 1.74931e-014
lhumerus -45.499 35.4264 56.2085
lradius 16.9099
lwrist -15.7556
lhand -19.8112 21.2686
lfingers 7.12502
lthumb 6.52209 51.1482
rfemur -11.3612 16.9961 17.4665
rtibia 26.2287
rfoot -18.3194 -16.4575
rtoes 6.15429
lfemur -63.0889 20.9046 -26.4806
ltibia 91.2481
lfoot -18.2744 -6.10811
ltoes -11.5234
163
root -2.76424 18.8015 9.76249 -2.07939 148.67 -5.37855
lowerback 14.1227 1.08168 1.00455
upperback 3.15025 1.83817 -0.108743
thorax -4.55228 1.00801 -1.01623
lowerneck -8.05946 0.152676 -7.64587
upperneck 28.5449 3.09564 2.04383
head 10.3215 1.53825 2.51232
rclavicle 4.73108e-014 9.54166e-015
rhumerus -26.3435 -4.41145 -74.8971
rradius 29.164
rwrist 15.8871
rhand -29.738 -5.28498
rfingers 7.12502
rthumb -3.06442 -35.2427
lclavicle 4.73108e-014 9.54166e-015
lhumerus -45.4787 35.1749 56.6095
lradius 17.2482
lwrist -15.3335
lhand -19.8001 21.3476
lfingers 7.12502
lthumb 6.53284 51.2268
rfemur -11.1923 16.8297 17.6152
rtibia 26.1107
rfoot -18.4907 -16.6901
rtoes 5.6828
lfemur -63.2947 20.9683 -26.5608
ltibia 90.7334
lfoot -18.1507 -5.87253
ltoes -12.3995
164
root -2.73601 18.8101 9.75365 -2.19545 149.027 -5.50658
lowerback 14.1156 1.09291 0.830683
upperback 3.22054 1.83231 -0.149581
thorax -4.47843 1.01077 -0.95857
lowerneck -8.05128 0.16105 -7.77548
upperneck 28.4854 3.11736 2.08803
head 10.2947 1.54131 2.55059
rclavicle 1.09332e-014 -2.14687e-014
rhumerus -26.3525 -4.37488 -75.0033
rradius 29.134
rwrist 16.4163
rhand -30.7888 -3.02981
rfingers 7.12502
rthumb -4.07924 -32.9705
lclavicle 1.09332e-014 -2.14687e-014
lhumerus -45.4233 35.007 56.9875
lradius 17.4715
lwrist -14.9463
lhand -20.0379 21.0387
lfingers 7.12502
lthumb 6.30327 50.9249
rfemur -10.8935 16.6048 17.5947
rtibia 25.9602
rfoot -18.6956 -16.8313
rtoes 5.59254
lfemur -63.2829 20.9889 -26.7581
ltibia 90.1625
lfoot -18.2312 -5.59988
ltoes -13.0178
165
root -2.70898 18.8157 9.74538 -2.21354 149.299 -5.54143
lowerback 14.1434 1.12497 0.659467
upperback 3.22076 1.85308 -0.115523
thorax -4.49924 1.02319 -0.830782
lowerneck -7.91156 0.228487 -7.78297
upperneck 28.326 3.25876 1.87002
head 10.2077 1.58733 2.48189
rclavicle -2.0276e-014 1.11319e-014
rhumerus -26.3908 -4.28481 -75.0113
rradius 28.9829
rwrist 16.9862
rhand -29.943 -1.95381
rfingers 7.12502
rthumb -3.26243 -31.9086
lclavicle -2.0276e-014 1.11319e-014
lhumerus -45.4629 34.8104 57.385
lradius 17.658
lwrist -14.6
lhand -20.0597 21.4382
lfingers 7.12502
lthumb 6.28214 51.3251
rfemur -10.6604 16.4678 17.6459
rtibia 25.7905
rfoot -18.7974 -17.0314
rtoes 5.85668
lfemur -63.3314 21.0565 -26.8704
ltibia 89.6136
lfoot -18.1889 -5.4012
ltoes -11.9426
166
root -2.68133 18.8218 9.73983 -2.16109 149.586 -5.51548
lowerback 14.1542 1.15031 0.614122
upperback 3.21212 1.87927 -0.137921
thorax -4.51438 1.03649 -0.833795
lowerneck -7.9704 0.280027 -7.73758
upperneck 28.3222 3.36282 1.76823
head 10.2158 1.63021 2.45019
rclavicle -4.29375e-014 4.77083e-015
rhumerus -26.4558 -4.2304 -75.1703
rradius 28.863
rwrist 17.264
rhand -30.0527 -2.98709
rfingers 7.12502
rthumb -3.36838 -32.9402
lclavicle -4.29375e-014 4.77083e-015
lhumerus -45.2877 34.2665 58.0216
lradius 17.9052
lwrist -14.0282
lhand -19.6512 22.7772
lfingers 7.12502
lthumb 6.67655 52.6519
rfemur -10.49 16.3423 17.7464
rtibia 25.6268
rfoot -18.862 -17.288
rtoes 5.95821
lfemur -63.4467 21.1263 -26.9604
ltibia 89.0517
lfoot -18.0007 -5.1605
ltoes -11.2602
